<svg width="182" height="67" fill="none" xmlns="http://www.w3.org/2000/svg"><path d="M27.325 31.913l.727 3.31h5.315l1.79-3.08-1.453 8.097h7.053l3.941-21.95h-7.416l-5.185 8.734-2.049-8.734H22.71l-3.941 21.95h7.053l1.503-8.327zm36.172 8.327h8.765l4.019-5.017 2.722 5.017h7.546l-5.834-10.644 9.153-11.306h-8.764l-3.864 4.812-2.593-4.812h-7.545l5.652 10.415-6.586 8.2-2.67 3.335zm-13.639 0l2.205-5.017h3.526l.44 5.017h7.157l-.492-3.336-2.827-18.614h-6.17L42.52 40.24h7.338zm3.786-8.989l1.452-3.285.234 3.285h-1.686z" fill="#404041"/><path d="M95.624 42.634l2.853-15.737h-7.053l-3.942 21.899h15.921l1.115-6.162h-8.894zm14.132-15.737l-3.941 21.899h7.053l3.941-21.9h-7.053zm21.574 0l-1.66 9.294-5.056-9.294h-5.393l-3.942 21.899h7.053l1.66-9.193 5.004 9.193h5.445l3.942-21.9h-7.053zm23.7 6.162l1.089-6.162h-15.325l-3.941 21.899h15.376l1.089-6.162h-8.297l.363-2.063h5.912l1.063-5.806h-5.912l.285-1.706h8.298zM18.302 42.634l-2.204 6.162h68.921l1.115-6.162H18.302z" fill="#0A9F30"/><path d="M91.839 24.503l1.115-6.162h66.043l-2.438 6.162h-64.72zm71.796-5.358c.305 0 .609.06.914.179.274.12.517.268.761.477.213.209.396.447.487.745.122.269.183.567.183.895 0 .417-.091.805-.304 1.133a2.313 2.313 0 01-2.011 1.133c-.426 0-.822-.09-1.157-.298a2.271 2.271 0 01-.853-.835 2.188 2.188 0 01-.304-1.133c0-.388.091-.805.304-1.133a2.27 2.27 0 01.853-.835c.305-.238.701-.328 1.127-.328zm0 .447c-.335 0-.64.09-.944.239a1.75 1.75 0 00-.67.656c-.183.268-.244.596-.244.924 0 .328.091.626.244.924.182.269.396.507.7.656a2 2 0 00.944.239c.335 0 .67-.09.945-.239.274-.149.517-.387.67-.656.152-.268.243-.596.243-.924 0-.328-.091-.656-.243-.924a1.757 1.757 0 00-.67-.656c-.335-.15-.64-.239-.975-.239zm-.548 3.041h-.518v-2.415h1.157c.183 0 .335.03.457.09s.213.149.274.238c.061.09.092.239.092.358a.6.6 0 01-.183.447.835.835 0 01-.487.239c.121.03.182.09.274.179.061.09.152.209.274.387l.304.477h-.609l-.213-.387c-.091-.18-.183-.298-.244-.388a.403.403 0 00-.213-.179.583.583 0 00-.243-.06h-.122v1.014zm0-2.027v.656h.396c.182 0 .335-.03.426-.06a.312.312 0 00.152-.268.27.27 0 00-.121-.239c-.092-.06-.214-.089-.396-.089h-.457z" fill="#404041"/></svg>