<svg width="168" height="35" fill="none" xmlns="http://www.w3.org/2000/svg"><path d="M13.267 15.597l.652 3.806h5.958l2.095-3.524-1.909 9.302h7.867L33.237 0H24.95l-6.19 10.007L16.85 0H8.658L3.352 25.181h7.867l2.048-9.584zm40.126 9.584h9.776l4.701-5.778 2.84 5.778h8.425l-6.098-12.215L83.79 0h-9.775l-4.516 5.497L66.754 0h-8.425l5.911 11.933-7.68 9.396-3.166 3.852zm-15.268 0l2.653-5.778h3.91l.28 5.778h8.006l-.419-3.805L50.228 0h-6.936l-13.36 25.181h8.193zm4.608-10.288l1.723-3.759.14 3.759h-1.863z" fill="#404041"/><path d="M89.237 27.906l3.817-18.087h-7.913l-5.307 25.18h17.828l1.49-7.093h-9.915zm16.432-18.087l-5.307 25.18h7.867l5.307-25.18h-7.867zm24.113 0l-2.234 10.711-5.26-10.711h-6.052l-5.307 25.18h7.914l2.234-10.57L126.291 35h6.098l5.307-25.18h-7.914zm26.255 7.094l1.489-7.094h-17.177l-5.307 25.18h17.224l1.49-7.093h-9.31l.512-2.349h6.61l1.396-6.671h-6.61l.419-1.973h9.264zM2.746 27.906L0 35h77.087l1.49-7.094H2.747z" fill="#0A9F30"/><path d="M85.7 7.094L87.188 0h73.922l-2.98 7.094H85.699zm77.273-3.571c0-.704.232-1.315.744-1.785s1.071-.751 1.769-.751 1.304.234 1.769.751c.512.517.745 1.08.745 1.785 0 .705-.233 1.316-.745 1.786-.512.516-1.071.751-1.769.751s-1.303-.234-1.769-.751c-.465-.517-.744-1.08-.744-1.786zm2.513 2.35c.652 0 1.164-.235 1.63-.705.465-.47.698-.987.698-1.645 0-.657-.28-1.174-.698-1.644-.466-.47-.978-.705-1.63-.705-.651 0-1.164.235-1.629.705-.466.47-.652.987-.652 1.644 0 .658.233 1.175.652 1.645.465.47.978.704 1.629.704zM166.51 3.1c0 .376-.139.61-.419.751l.559.987h-.605l-.466-.893h-.372v.893h-.559V2.255h.885c.279 0 .558.094.698.235a.76.76 0 01.279.61zm-.977-.33h-.326v.706h.326a.67.67 0 00.326-.094c.093-.047.139-.141.139-.282-.046-.235-.186-.33-.465-.33z" fill="#404041"/></svg>