<svg width="14" height="14" fill="none" xmlns="http://www.w3.org/2000/svg"><path d="M5.487 6.538C5.644 3.843 4.592 1.057 4.047 0c1.178 1.65 1.898 3.698 2.028 6.538.131 2.84-.916 5.15-1.112 6.868.327.132 2.16.198 2.88.198V14H6.467c-.944 0-1.876-.088-2.16-.132.284-1.299 1.021-4.636 1.179-7.33z" fill="#E5004C"/><path d="M7.188 7.726c.419-1.32 3.272-3.235 4.515-3.962C10.591 4.91 8.17 7 7.777 7.991c-.327.825-.284 3.434-.131 4.82-.327-1.144-.877-3.764-.458-5.085zm-.785-6.273c0-.476.501-.683.72-.727-.72 0-.982.33-.982.727 0 1.189 1.393.66 1.963.66.524 0 .916.595.916 1.189 0 .726-.262 1.123-1.112 1.123-.576 0-1.025-.353-1.178-.529.24.308.864.925 1.44.925.72 0 1.505-.529 1.505-1.52 0-.99-.982-1.452-1.571-1.452-.463 0-.654.132-.85.132-.197 0-.851.066-.851-.528z" fill="#E5004C"/></svg>