<svg width="14" height="14" fill="none" xmlns="http://www.w3.org/2000/svg"><g clip-path="url(#clip0)"><path d="M5.67 8.602c-.037-.233-.03-1.49.012-2.142.03-.457.076-.908.132-1.297a.972.972 0 00.018-.192c-.004-.005-.037.009-.072.03-.14.085-.222.09-.568.034-.965-.154-1.65-.177-2.201-.072a7.865 7.865 0 00-.338.078c-.345.086-.394.093-.664.093-.226 0-.241 0-.294-.025-.145-.067-.223-.209-.25-.454-.047-.435.129-1.106.382-1.459.07-.1.22-.239.331-.312.355-.232.807-.332 1.474-.326.616.068 2.206.193 2.492.702.016.036.033.06.038.055a3.12 3.12 0 00.073-.265c.083-.33.182-.69.313-1.131.147-.5.187-.615.26-.762.259-.517.735-.78 1.477-.815.575-.026.924.172 1.008.573.02.097.023.336.005.451-.041.256-.09.4-.34.984-.238.558-.466 1.12-.681 1.687-.566 1.493-.93 2.84-1.127 4.171a1.232 1.232 0 01-.106.395c-.274.559-1.268.62-1.374 0zm6.602-1.691a1.448 1.448 0 01-.172-.087c-.247-.144-.66-.359-.908-.472-.653-.297-1.109-.42-1.64-.44-.383-.016-.561-.041-.75-.108-.238-.084-.343-.16-.391-.284a.89.89 0 01-.01-.432c.093-.457.503-1.08.866-1.316.22-.143.426-.204.73-.214.484-.017.855.082 1.82.484.497.207.684.306.915.486.132.103.203.152.422.295a.894.894 0 01.144.117c.206.229.218.584.035 1.075-.171.46-.442.797-.72.895a.55.55 0 01-.341.001z" fill="#61AFD8"/><path d="M6.01 13.246a5.639 5.639 0 01-1.269-.187c-1.81-.465-3.29-1.634-4.053-3.2C.51 9.495.449 9.33.427 9.151c-.07-.555.333-1.284.86-1.556.109-.057.31-.137.442-.176.163-.045.348-.052.451.06.084.093.125.204.185.503.055.274.12.485.216.712.282.66.79 1.274 1.418 1.71.574.4 1.235.674 1.873.774.35.055.648.064 1.042.03.812-.072 1.296-.16 1.709-.308.375-.135.873-.45 1.528-.967.064-.05.194-.15.288-.22.313-.235.442-.345.648-.552.22-.22.388-.355.526-.421.315-.122.41.243.355.452-.04.146-.075.208-.293.512-1.108 1.542-2.125 2.529-3.122 3.028a4.63 4.63 0 01-1.603.476c-.286.037-.59.049-.94.038z" fill="#E23033"/></g><defs><clipPath id="clip0"><path fill="#fff" d="M0 0h14v14H0z"/></clipPath></defs></svg>