<svg width="16" height="16" fill="none" xmlns="http://www.w3.org/2000/svg"><g clip-path="url(#clip0)"><path d="M15.194 3.473a6.24 6.24 0 01-1.725.472 2.977 2.977 0 001.317-1.654 5.983 5.983 0 01-1.898.725A2.992 2.992 0 007.71 5.063c0 .237.02.465.07.682a8.473 8.473 0 01-6.17-3.13 2.998 2.998 0 00.92 4 2.956 2.956 0 01-1.353-.369v.033A3.007 3.007 0 003.575 9.22c-.244.067-.51.099-.785.099a2.66 2.66 0 01-.567-.051 3.022 3.022 0 002.797 2.085 6.014 6.014 0 01-3.711 1.276c-.245 0-.48-.01-.716-.04a8.427 8.427 0 004.592 1.343c5.508 0 8.52-4.563 8.52-8.518 0-.133-.005-.26-.012-.387a5.972 5.972 0 001.5-1.554z" fill="#A3A3A3"/></g><defs><clipPath id="clip0"><path fill="#fff" transform="translate(.593 .7)" d="M0 0h14.601v14.601H0z"/></clipPath></defs></svg>