<svg width="21" height="18" fill="none" xmlns="http://www.w3.org/2000/svg"><path d="M17.872 9c0 4.832-4 8.75-8.936 8.75C4.001 17.75 0 13.832 0 9S4 .25 8.936.25c4.935 0 8.936 3.918 8.936 8.75z" fill="#fff"/><path fill-rule="evenodd" clip-rule="evenodd" d="M8.936 16.438c4.195 0 7.596-3.33 7.596-7.438s-3.4-7.438-7.596-7.438C4.741 1.563 1.34 4.893 1.34 9s3.401 7.438 7.596 7.438zm0 1.312c4.935 0 8.936-3.918 8.936-8.75s-4-8.75-8.936-8.75C4.001.25 0 4.168 0 9s4 8.75 8.936 8.75z" fill="#CF0000"/><path d="M21 9c0 2.416-2 4.375-4.468 4.375S12.064 11.416 12.064 9s2-4.375 4.468-4.375S21 6.584 21 9z" fill="#fff"/><path d="M8.644 12.063H4.021l.169-1.03 2.426-2.136.333-.316c.521-.497.76-.966.716-1.407-.034-.343-.222-.52-.562-.528a.76.76 0 00-.613.28c-.166.189-.269.437-.31.745l-1.531.01c.025-.406.155-.776.389-1.11.234-.338.546-.602.936-.791.394-.19.812-.283 1.256-.28.665.012 1.18.184 1.545.515.365.329.525.774.478 1.337a2.095 2.095 0 01-.347.968c-.2.313-.491.643-.876.99l-.711.621-1.059.968 2.576.01-.192 1.153zm4.164 0h-1.546l.871-4.751-1.587.426.215-1.186 3.016-.954.173-.005-1.142 6.47zm4.352-3.387h1.16l-.176.947h-1.156l-.242 1.281H15.67l.238-1.281h-1.163l.175-.947h1.163l.232-1.246h1.076l-.232 1.246z" fill="#000"/><path fill-rule="evenodd" clip-rule="evenodd" d="M15.89 11.998a7.385 7.385 0 01-.672 1.185c.415.125.857.192 1.314.192C19 13.375 21 11.416 21 9s-2-4.375-4.468-4.375c-.457 0-.899.067-1.314.192.259.372.484.769.672 1.185.207-.042.422-.064.642-.064 1.727 0 3.128 1.37 3.128 3.062 0 1.691-1.4 3.063-3.128 3.063a3.21 3.21 0 01-.642-.065z" fill="#CF0000"/></svg>