<svg width="9" height="16" fill="none" xmlns="http://www.w3.org/2000/svg"><path fill-rule="evenodd" clip-rule="evenodd" d="M4.688 6.031a1.64 1.64 0 100-3.28 1.64 1.64 0 000 3.28zm0 2.05a3.691 3.691 0 100-7.382 3.691 3.691 0 000 7.383z" fill="#A3A3A3"/><path d="M3.747 11.262c-.983-.192-1.944-.67-2.952-1.354-.468-.318-.553-.965-.21-1.416.342-.45.982-.533 1.454-.22 1.119.746 1.933 1.033 2.664 1.032.727 0 1.53-.284 2.628-1.022.47-.316 1.11-.238 1.456.21.346.448.265 1.097-.202 1.417-1.005.69-1.966 1.17-2.956 1.358l2.22 2.219a1.025 1.025 0 11-1.422 1.469l-.006.004-1.735-1.736-1.728 1.727a1.025 1.025 0 11-1.456-1.439L1.5 13.51l2.247-2.247z" fill="#A3A3A3"/></svg>