<svg width="16" height="12" fill="none" xmlns="http://www.w3.org/2000/svg"><rect x=".994" y=".171" width="14.507" height="11.658" rx="5.829" fill="#fff"/><path fill-rule="evenodd" clip-rule="evenodd" d="M12.186.819H4.309c-1.465 0-2.652 1.16-2.652 2.59v5.182c0 1.43 1.187 2.59 2.652 2.59h7.877c1.465 0 2.652-1.16 2.652-2.59V3.409c0-1.43-1.187-2.59-2.652-2.59zM4.309.17C2.48.171.994 1.621.994 3.41v5.182c0 1.788 1.484 3.238 3.315 3.238h7.877c1.83 0 3.315-1.45 3.315-3.238V3.409c0-1.788-1.484-3.238-3.315-3.238H4.309z" fill="#EE7D14"/><path fill-rule="evenodd" clip-rule="evenodd" d="M6.892 1.466h-1.58a3 3 0 00-3 3v3.067c0 .606.18 1.17.488 1.64.882-3.606 2.614-6.103 4.092-7.707zm-2.969 8.727c.415.218.888.34 1.39.34h5.87c.623 0 1.202-.19 1.682-.516a17.18 17.18 0 00-.813-2.722h-7.28a17.217 17.217 0 00-.849 2.898zm9.996-1.43c-.909-3.386-2.566-5.754-3.986-7.297h1.25a3 3 0 013 3v3.067c0 .439-.095.855-.264 1.23zM5.348 6h6.129a15.755 15.755 0 00-3.065-4.226A15.755 15.755 0 005.348 6z" fill="#EE7D14"/></svg>