<svg width="16" height="16" fill="none" xmlns="http://www.w3.org/2000/svg"><g clip-path="url(#clip0)" fill="#A3A3A3"><path d="M10.833.7H5.357A4.563 4.563 0 00.795 5.261v5.476A4.563 4.563 0 005.357 15.3h5.476a4.563 4.563 0 004.563-4.562V5.262A4.563 4.563 0 0010.832.7zm3.194 10.038a3.197 3.197 0 01-3.194 3.194H5.357a3.197 3.197 0 01-3.194-3.194V5.262a3.197 3.197 0 013.194-3.194h5.476a3.197 3.197 0 013.194 3.194v5.476z"/><path d="M8.095 4.35a3.65 3.65 0 100 7.3 3.65 3.65 0 000-7.3zm0 5.931A2.285 2.285 0 015.814 8a2.284 2.284 0 012.281-2.281A2.284 2.284 0 0110.376 8a2.285 2.285 0 01-2.281 2.281zm3.925-5.719a.486.486 0 100-.972.486.486 0 000 .972z"/></g><defs><clipPath id="clip0"><path fill="#fff" transform="translate(.795 .7)" d="M0 0h14.601v14.601H0z"/></clipPath></defs></svg>