<svg width="15" height="16" fill="none" xmlns="http://www.w3.org/2000/svg"><g clip-path="url(#clip0)"><path d="M14.673 11.265c-.04-.066-.282-.593-1.45-1.677-1.224-1.136-1.06-.951.414-2.914.897-1.196 1.255-1.926 1.143-2.238-.106-.298-.766-.22-.766-.22l-2.194.014s-.163-.022-.284.05c-.118.071-.194.235-.194.235s-.347.926-.81 1.712c-.978 1.66-1.37 1.748-1.53 1.645-.371-.24-.278-.966-.278-1.48 0-1.61.244-2.28-.475-2.453-.24-.058-.415-.096-1.025-.103-.783-.008-1.447.003-1.822.187-.25.122-.442.395-.325.41.145.02.474.089.648.326.226.306.217.994.217.994s.13 1.894-.302 2.129c-.296.162-.702-.168-1.574-1.675-.446-.77-.784-1.624-.784-1.624s-.065-.159-.18-.244c-.141-.103-.338-.136-.338-.136l-2.087.013s-.313.01-.428.145c-.102.122-.008.372-.008.372s1.634 3.82 3.483 5.747c1.696 1.766 3.622 1.65 3.622 1.65h.872s.264-.029.398-.174c.125-.133.12-.383.12-.383s-.017-1.171.527-1.344c.535-.17 1.223 1.132 1.953 1.633.55.379.97.296.97.296l1.95-.028s1.02-.063.537-.865z" fill="#A3A3A3"/></g><defs><clipPath id="clip0"><path fill="#fff" transform="translate(.202 .7)" d="M0 0h14.601v14.601H0z"/></clipPath></defs></svg>