<svg width="16" height="10" fill="none" xmlns="http://www.w3.org/2000/svg"><path d="M.05 1.923C.05.861.91 0 1.973 0h13.461v8.077c0 1.062-.86 1.923-1.922 1.923H.05V1.923z" fill="#fff"/><path d="M11.825.385c-.047.678-.779 1.647-4.083 2.307C3.203 3.6.722 6.393.458 9.615H.434V1.923c0-.85.69-1.538 1.539-1.538h9.852z" fill="#008E78"/><path d="M15.05.685c-.91 2.007-2.79 2.384-4.856 2.799-1.457.292-3.006.603-4.375 1.516l-.136.09c-.803.524-2.204 1.44-2.749 4.525h1.033c5.02-.174 5.698-2.931 5.698-3.653 0-.616-.384-1.154-.577-1.347l.962-.192c.705-.064 2.154.192 2.307 1.73.154 1.54-2.243 2.95-3.461 3.462h4.615c.85 0 1.539-.688 1.539-1.538V.685z" fill="#008E78"/></svg>