<svg width="17" height="16" fill="none" xmlns="http://www.w3.org/2000/svg"><rect x=".609" width="16" height="16" rx="2" fill="#fff"/><path fill-rule="evenodd" clip-rule="evenodd" d="M11.117 7.146v.325l-.34.162-.018-.325.358-.162zm-1.88 0c.107-.217.053-.162.196-.217.197.235.072.253-.107.38l-.09-.163zm1.396-.325c.126-.09.251-.216.394-.27l.054.324a1.76 1.76 0 01-.358.235l-.09-.289zm-1.63 0c.054-.144-.018-.018.108-.144l.215-.036c.036.198-.054.288-.144.397-.09-.054-.143-.09-.179-.217zm-.34-.126c.036-.217.108-.217.108-.451l.304.144c.018.18-.054.27-.18.433l-.232-.126zm-.34-.595c.16-.018.16 0 .34.018l-.143.505-.287-.072.09-.451zm2.042.162c.179-.162.179-.253.43-.36l.107.36c-.161.18-.18.216-.394.343l-.143-.343zm-.484-.469c.072-.198.304-.451.502-.56l.197.38c-.144.216-.197.306-.43.45-.072-.126-.018-.054-.126-.162-.071-.072-.071-.036-.143-.108zm-.322-1.137c.25.073.304.199.537.307l-.34.704-.502-.307.305-.704zm-.914-.342l.591.162-.215.812-.555-.09.18-.884zm-.25.036l-.34 2.29-.323 2.04h3.922c-.053-.09.018-.307.054-.38.52-2.02-.77-4.149-2.902-4.6-.143.217-.233.217-.322.343-.09.144.018.27 0 .541l-.09-.198V4.35z" fill="#FF9000"/><path fill-rule="evenodd" clip-rule="evenodd" d="M5.01 6.532c-.216.848-.108 1.408.214 2.147h2.508l.322-2.038-.09-.253-1.486-.054c0-.126.09.036 0-.054-.072.198-.197.198-.43.198.036.253.072.127 0 .343-.233.09-.412.018-.502-.252-.053.108-.053.108-.25.036-.197-.073-.162-.18-.197.054-.126-.072-.108.126-.09-.127z" fill="#FF5C1A"/><path fill-rule="evenodd" clip-rule="evenodd" d="M5.654 6.515c.107-.127.036-.145.233-.019.16.109.125.037.09.253l-.305-.198-.018-.036zm.806-.38a.677.677 0 00-.215.163c-.125-.144-.161-.162-.25-.343l.196-.126c.126.126.18.253.269.307zm.483-.306c-.017 0-.035 0-.035.018l-.072.018c-.072.036-.072.018-.107.072l-.18-.415.233-.162c.108.108.126.234.215.433l-.054.036zm.305-.667c.448-.019.412-.217.466.469l-.376.036-.09-.505zm-2.239 1.37c-.018.253-.036.055.09.127.035-.235 0-.126.197-.054.197.072.197.072.25-.036.09.27.27.342.502.252.072-.216.036-.09 0-.343.233 0 .358 0 .43-.198.09.09 0-.072 0 .054l1.486.054.09.253.34-2.291c-.09-.163-.447-.145-.609-.127-.627.018-1.146.217-1.63.542l-.035.054c-.305.234-.466.36-.645.703-.251.38-.287.542-.466 1.01z" fill="#F53B21"/><path fill-rule="evenodd" clip-rule="evenodd" d="M2.95 11.079c-.27 0-.287-.018-.144-.596.125-.577.591-.577.591-.288 0 .306-.018.884-.448.884zm-1.308 1.443h.788c0-.307.143-.541.143-.884.358.018.591.198 1.147-.198.25-.199.465-.56.501-.92.125-.83-.304-1.263-.913-1.119-.287.072-.287.144-.448.27.018-.09.036-.126.036-.27h-.699l-.269 1.551c-.053.289-.107.524-.16.794-.037.27-.108.541-.126.776zM12.066 8.68h2.866c.537.017.412.126.555-.65.018-.163.072-.343.09-.505-.627 0-2.83-.09-3.296.018l-.215 1.136zm-6.842 2.344c-.125-.523.036-1.064.591-1.064 0 .253-.054.505-.125.722-.09.288-.144.342-.466.342zm-.896-.09c0 .415.27.758.699.758.43 0 .448-.216.699-.379 0 .199-.036.144-.054.325h.752c0-.541.018-.668.125-1.19.054-.253.162-.722.162-.957-.663-.144-1.11-.198-1.666.108-.412.217-.717.704-.717 1.335zm7.434-.649c.035-.343.25-.325.43-.325.179 0 .018-.018.143.036-.018.217-.072.289-.573.289zm-.824.433c0 1.443 1.648.848 1.863.83 0-.92.107-.47-.753-.47-.268 0-.304-.126-.358-.216.663 0 1.38-.108 1.38-.776 0-.649-.681-.811-1.255-.631-.465.144-.877.613-.877 1.263z" fill="#004013"/><path fill-rule="evenodd" clip-rule="evenodd" d="M5.546 4.674c-.018.199.036-.018-.035.109-.144.342-1.344 1.299-.968 3.355.054.217.126.325.162.541h.519c-.322-.74-.43-1.299-.215-2.146.18-.47.215-.632.466-1.01.179-.343.34-.47.645-.704l.035-.054c.484-.325 1.003-.523 1.63-.542.162-.018.52-.036.61.127v.036l.089.198c.018-.27-.09-.397 0-.54.09-.127.179-.127.322-.344-.788-.054-1.218-.108-1.934.163-.52.18-1.003.523-1.326.811z" fill="#FFB200"/><path fill-rule="evenodd" clip-rule="evenodd" d="M9.29 10.934c.269 0 .34.018.573-.072-.036.162-.125.65-.18.776h.789c.072-.343.161-.758.215-1.083.054-.342.197-.847.197-1.154-.913 0-.734-.072-.842.397-.018.144-.071.379-.09.541-.089 0-.465.144-.465-.144 0-.361.09-.47.09-.794-.842 0-.717-.072-.824.36-.018.145-.09.434-.09.578 0 .379.269.595.627.595zm-2.544-.27c0 1.136.806 1.118 1.577.938v-.632c-.251.073-.502.163-.681-.054-.161-.18-.09-.487.054-.667.179-.235.286-.253.662-.235.162 0 .144.072.305-.559-.52-.126-.86-.108-1.29.144-.34.199-.627.542-.627 1.065z" fill="#004013"/><path fill-rule="evenodd" clip-rule="evenodd" d="M4.006 7.525c.036.487.108.74.197 1.154h.502c-.036-.216-.108-.324-.162-.54-.376-2.057.824-3.014.968-3.356.071-.127.018.09.035-.109 0-.162-.071-.054.126-.198.071-.054.107-.054.197-.126.125-.108.215-.199.376-.27-.054-.11-.09-.2-.143-.308-.215.055-.663.433-.842.614-.143.108-.215.216-.34.36-.717.903-.86 1.624-.914 2.779z" fill="#FF9000"/><path fill-rule="evenodd" clip-rule="evenodd" d="M13.105 9.996h.573l-.322 1.642h.788c.018-.162.269-1.552.322-1.642h.61c.053-.108.143-.433.143-.595h-2.006c-.018.216-.09.36-.108.595z" fill="#004013"/><path fill-rule="evenodd" clip-rule="evenodd" d="M6.621 3.538c.054.108-.018-.126.036.09v.144c-.054.163-.269.235-.412.307-.161.072-.25.162-.376.27-.09.073-.125.073-.197.127-.197.144-.125.036-.125.198.322-.288.806-.631 1.325-.811.716-.271 1.146-.217 1.934-.163 2.132.451 3.421 2.58 2.902 4.6-.036.073-.107.29-.054.38h.09c.466-.903.179-2.725-.323-3.266-.179-.379-.86-1.046-1.217-1.28a1.852 1.852 0 00-.627-.307c0-.145-.018-.037.017-.163.018-.09.018-.09.036-.126-.143-.27-1.648-.379-2.328-.235-.215.018-.627.127-.68.235z" fill="#D12F1A"/><path fill-rule="evenodd" clip-rule="evenodd" d="M4.203 8.68c-.09-.416-.161-.668-.197-1.155H2.484c-.018.162-.072.415-.09.577-.036.198-.072.397-.107.577h1.916z" fill="#004013"/><path fill-rule="evenodd" clip-rule="evenodd" d="M11.421 5.414c.502.541.789 2.363.323 3.265h.322l.215-1.136a4.68 4.68 0 00-.663-2.436c-.125-.18-.107-.18-.25-.252.035.216.071.126.071.27 0 .073 0 .217-.018.29z" fill="#FF5C1A"/><path fill-rule="evenodd" clip-rule="evenodd" d="M8.466 5.198l.555.09.215-.812-.59-.162-.18.884z" fill="#E91524"/><path fill-rule="evenodd" clip-rule="evenodd" d="M10.203 4.133c.359.235 1.04.902 1.218 1.281.018-.072.018-.216.018-.289 0-.144-.036-.054-.071-.27-.054-.289-.824-.866-1.04-.992l-.125.27z" fill="#FF9000"/><path fill-rule="evenodd" clip-rule="evenodd" d="M9.254 5.36l.502.307.34-.704c-.233-.108-.287-.234-.537-.307l-.305.704zm.627.433c.072.072.072.036.143.108.108.108.054.036.126.162.233-.144.286-.234.43-.45l-.197-.38c-.197.109-.43.361-.502.56z" fill="#E91524"/><path fill-rule="evenodd" clip-rule="evenodd" d="M10.204 4.133l.125-.27a1.327 1.327 0 00-.699-.325c-.018.036-.018.036-.036.126-.035.126-.017.018-.017.162.232.055.447.18.627.307z" fill="#FF5C1A"/><path fill-rule="evenodd" clip-rule="evenodd" d="M10.365 6.262l.143.343c.215-.127.233-.163.394-.343l-.107-.36c-.251.107-.251.198-.43.36z" fill="#E91524"/><path fill-rule="evenodd" clip-rule="evenodd" d="M7.248 5.162l.09.505.376-.036c-.054-.686-.018-.488-.466-.47z" fill="#FFB200"/><path fill-rule="evenodd" clip-rule="evenodd" d="M6.102 3.772c.053.109.09.199.143.307.143-.072.358-.144.412-.307v-.144c-.054-.216.018.018-.036-.09-.179.036-.161.018-.286.09l-.233.144z" fill="#FF5C1A"/><path fill-rule="evenodd" clip-rule="evenodd" d="M8.233 6.55l.287.073.143-.505c-.179-.018-.179-.036-.34-.018l-.09.45z" fill="#F53B21"/><path fill-rule="evenodd" clip-rule="evenodd" d="M6.55 5.522l.179.415c.036-.054.036-.036.107-.072l.072-.018c0-.018.018-.018.036-.018l.053-.036c-.09-.199-.107-.325-.215-.433l-.232.162z" fill="#FFB200"/><path fill-rule="evenodd" clip-rule="evenodd" d="M8.663 6.695l.233.126c.125-.162.197-.252.179-.433l-.305-.144c0 .234-.071.234-.107.45z" fill="#F53B21"/><path fill-rule="evenodd" clip-rule="evenodd" d="M10.633 6.821l.09.289c.143-.072.25-.145.358-.235l-.054-.324c-.143.054-.268.18-.394.27zm.126.487l.018.325.34-.162v-.325l-.358.162z" fill="#E91524"/><path fill-rule="evenodd" clip-rule="evenodd" d="M5.994 5.955c.09.18.126.199.25.343a.677.677 0 01.216-.162c-.09-.054-.143-.18-.269-.307l-.197.126z" fill="#FFB200"/><path fill-rule="evenodd" clip-rule="evenodd" d="M9.003 6.821c.036.126.09.163.18.217.09-.109.179-.199.143-.397l-.215.036c-.125.126-.054 0-.108.144zm.233.325l.09.162c.179-.126.304-.144.107-.379-.143.055-.09 0-.197.217z" fill="#F53B21"/><path fill-rule="evenodd" clip-rule="evenodd" d="M5.887 6.496c-.197-.126-.126-.108-.233.018l.018.037.304.198c.036-.216.072-.144-.09-.253z" fill="#FFB200"/></svg>