<svg width="15" height="16" fill="none" xmlns="http://www.w3.org/2000/svg"><g clip-path="url(#clip0)"><path d="M13.98 3.948c-.396-.704-.825-.834-1.7-.883-.875-.06-3.073-.084-4.978-.084-1.908 0-4.107.024-4.98.083-.874.05-1.304.179-1.704.884C.21 4.652 0 5.864 0 7.998v.006c0 2.125.21 3.346.618 4.042.4.705.83.833 1.703.892.874.05 3.073.081 4.981.081 1.905 0 4.103-.03 4.978-.08.876-.06 1.305-.187 1.701-.892.412-.696.62-1.917.62-4.042v-.007c0-2.134-.208-3.346-.62-4.05zm-8.505 6.79V5.262L10.038 8l-4.563 2.738z" fill="#A3A3A3"/></g><defs><clipPath id="clip0"><path fill="#fff" transform="translate(0 .7)" d="M0 0h14.601v14.601H0z"/></clipPath></defs></svg>