<svg width="53" height="12" fill="none" xmlns="http://www.w3.org/2000/svg"><g clip-path="url(#clip0)"><path d="M19.035 4.266h-1.238c-.553 0-.745-.305-.745-.593s.192-.585.745-.585h1.238v1.178zM9.68 4.05v-.963h1.272c.292 0 .626.09.626.467 0 .38-.335.496-.626.496H9.68zm0 1.862V4.896h1.322c.452 0 .71.136.71.513s-.258.504-.71.504H9.68zm13.487-.927h1.69c.52 0 .67.18.67.405 0 .36-.368.522-.988.522-.71 0-1.664-.198-2.352-.396l-.2 1.25c.787.252 1.724.505 3.029.505 1.674 0 3.43-.432 3.43-1.603 0-.799-.827-1.15-1.539-1.204v-.036c.57-.118 1.146-.54 1.146-1.17 0-1.07-1.397-1.476-2.862-1.476-1.062 0-2.218.243-2.995.468l.16 1.206c.694-.189 1.572-.378 2.226-.378.577 0 .877.117.877.457 0 .218-.116.398-.577.398h-1.715v1.052zm17.185.935c-.601 0-1.439-.35-1.439-1.376 0-1.088.828-1.403 1.44-1.403.61 0 1.437.315 1.437 1.403 0 1.026-.835 1.376-1.438 1.376zM6.583 3.736V2.25a5.684 5.684 0 00-2.374-.496c-1.791 0-3.724.73-3.724 2.8 0 1.996 1.926 2.752 3.757 2.752.87 0 1.715-.17 2.342-.458V5.364a3.877 3.877 0 01-1.598.36c-.785 0-1.648-.28-1.648-1.17 0-.863.745-1.196 1.548-1.196.519 0 1.147.152 1.698.378zM28.79 7.037h2.653V5.165h1.807v1.872h2.66v-5.01h-2.66v1.736h-1.807V2.027H28.79v5.01zm18.332 0l2.761-2.51v2.51h2.602v-5.01h-2.31l-2.76 2.51v-2.51h-2.602v5.01h2.31zm-30.003 0l.953-1.681h.963v1.681h2.552v-5.01c-1.087-.126-2.636-.172-3.12-.172-2.06 0-4 .144-4 1.836 0 .728.594 1.16 1.263 1.34l-1.388 2.006h2.777zm-9.99 0a35.12 35.12 0 003.43.18c1.673 0 3.841-.098 3.841-1.502 0-.819-.854-1.25-1.59-1.25V4.41c.703-.09 1.272-.602 1.272-1.205 0-1.25-1.85-1.35-3.59-1.35-1.155 0-2.083.046-3.363.171v5.011zm33.224-5.282c-1.824 0-4.175.704-4.175 2.8 0 2.05 2.377 2.752 4.175 2.752 1.8 0 4.175-.702 4.175-2.753 0-2.095-2.35-2.799-4.175-2.799z" fill="#484848"/><path d="M49.816 1.754L47.907 0v3.509l1.909-1.755z" fill="#FAAC3D"/><path d="M.509 9.402h10.398V12H.51V9.402z" fill="#5DB5E5"/><path d="M10.906 9.402h10.399V12H10.906V9.402z" fill="#FAAC3D"/><path d="M21.305 9.402h10.399V12H21.305V9.402z" fill="#91C74B"/><path d="M31.704 9.402h10.398V12H31.704V9.402z" fill="#FCE535"/><path d="M42.102 9.402h10.4V12h-10.4V9.402z" fill="#9061A9"/></g><defs><clipPath id="clip0"><path fill="#fff" transform="translate(.501)" d="M0 0h52v12H0z"/></clipPath></defs></svg>