<svg width="17" height="18" fill="none" xmlns="http://www.w3.org/2000/svg"><circle cx="7.714" cy="8" r="7.28" fill="#fff"/><path d="M12.2 11.405l.148.964.713-1.18c.737-1.22 1.328-2.603 1.102-4.148a6.485 6.485 0 00-2.061-3.863 6.531 6.531 0 00-8.254-.423A6.492 6.492 0 001.4 6.386a6.472 6.472 0 00.42 4.356 6.504 6.504 0 003.097 3.1 6.54 6.54 0 004.074.504l.018.018.278-.084.314-.078c.362-.074.873-.135 1.274-.062.116.022.216.038.307.053.27.043.461.073.764.196.412.168 1.018.51 2.125 1.298l1.398.995-.645-1.59c-.331-.818-.724-1.39-1.175-1.79a3.272 3.272 0 00-1.405-.725c-.292-.075-.614-.124-.902-.168l-.168-.026a.78.78 0 00.074-.045c.253-.174.329-.444.329-.681a.839.839 0 00-.054-.29.648.648 0 00.677.039zm-1.263-1.129c0 .175.054.352.123.505-.174-.13-.412-.252-.67-.252-.199 0-.466.044-.66.27-.175.206-.196.46-.196.623 0 .126.029.242.073.347-.946-.665-1.365-1.249-1.442-1.405l-.95.22v1.01A3.657 3.657 0 014.399 9.53a3.635 3.635 0 011.14-4.487 3.676 3.676 0 014.646.237 3.644 3.644 0 011.158 2.171c.017.116.036.22.051.304a2.852 2.852 0 00.012.064c-.04.005-.086.008-.141.012-.258.015-.63.017-1.178.017l-.075.992v.002h.005l.03.006.119.024c.103.024.248.06.409.114.335.111.685.278.91.502.022.021.044.045.065.069a.663.663 0 00-.404.18.73.73 0 00-.208.538zm.605.489v-.005.005z" fill="#FF8D00" stroke="#fff"/></svg>