<svg width="17" height="16" fill="none" xmlns="http://www.w3.org/2000/svg"><rect x=".609" y=".28" width="15.441" height="15.441" rx="2" fill="url(#paint0_linear)"/><path fill-rule="evenodd" clip-rule="evenodd" d="M2.623 2.294h11.413v11.412H2.623V2.294z" fill="#006949"/><path fill-rule="evenodd" clip-rule="evenodd" d="M7.797 13.066A4.485 4.485 0 003.32 8.59v1.943a2.538 2.538 0 012.534 2.533h1.943z" fill="#fff"/><path fill-rule="evenodd" clip-rule="evenodd" d="M10.539 13.066c0-3.976-3.243-7.219-7.22-7.219v1.944a5.286 5.286 0 015.276 5.275h1.944z" fill="#fff"/><path fill-rule="evenodd" clip-rule="evenodd" d="M13.28 13.066a9.957 9.957 0 00-4.07-8.024h4.07V3.106H3.32v1.943c4.416 0 8.017 3.602 8.017 8.017h1.943z" fill="#fff"/><defs><linearGradient id="paint0_linear" x1="16.05" y1=".28" x2=".609" y2="15.72" gradientUnits="userSpaceOnUse"><stop stop-color="#04A028"/><stop offset="1" stop-color="#007332"/></linearGradient></defs></svg>