<svg width="14" height="14" fill="none" xmlns="http://www.w3.org/2000/svg"><rect width="14" height="14" rx="1" fill="#EA040C"/><path d="M2.534 4.317a.59.59 0 10-1.089-.452.59.59 0 001.09.452z" fill="#fff"/><path d="M11.575 5.345l-1.455 3.24-1.524-3.24h-.862L9.727 9.55s-.2.51-.69.51c-.49 0-.603-.493-.603-.493V7.524c0-1.155-1.51-1.259-1.51-1.259s.51-.276.51-1.227c0-1.469-1.538-1.538-1.538-1.538H3.71c-.417 0-.355.352-.355.352v4.934h-.538c-.48 0-.4-.4-.4-.4V5.324h-.876V8.61c0 .672.714.765.714.765h1.524c.431 0 .42-.351.42-.351V6.869h1.214l.724.372c0-.207.931-.638 1.373.12-1.804.683-2.224 1.387-2.224 1.387s-.183.217-.183.717.638 1.213 1.61 1.213c.972 0 1.334-.482 1.334-.482s.38.455 1.104.455c1.103 0 1.458-1.11 1.458-1.11l1.81-4.196h-.844zm-5.903.862H4.217v-2.09L5.44 4.09s1.12-.038 1.12.993c0 1.055-.89 1.124-.89 1.124zm1.948 3.1s-.045.761-.848.761c-.804 0-.91-.534-.91-.534s-.26-.9 1.758-1.514v1.286z" fill="#fff"/></svg>