<svg width="17" height="16" fill="none" xmlns="http://www.w3.org/2000/svg"><path d="M.05 1.65C.05.74.789 0 1.7 0h12.7c.911 0 1.65.739 1.65 1.65v12.7A1.65 1.65 0 0114.4 16H1.7a1.65 1.65 0 01-1.65-1.65V1.65z" fill="#fff"/><path fill-rule="evenodd" clip-rule="evenodd" d="M7.977 12.784a3.172 3.172 0 003.181-3.163 3.172 3.172 0 00-3.181-3.163 3.172 3.172 0 00-3.182 3.163 3.172 3.172 0 003.182 3.163zm0 1.132c2.386 0 4.321-1.923 4.321-4.295s-1.935-4.295-4.321-4.295c-2.387 0-4.321 1.923-4.321 4.295s1.934 4.295 4.32 4.295z" fill="#0B357F"/><path d="M7.977 12.784h5.746v1.132H7.977v-1.132z" fill="#0B357F"/><path d="M2.16 8.795c.617 3.918 4.435 5.169 5.817 5.121-.863-.716-2.916-2.308-3.372-3.139-.57-1.038-.166-1.652.357-4.295.854-1.322 3.126-1.825 4.155-1.912L4.225.582c-.142 3.092-2.59 4.885-2.065 8.213z" fill="#0B357F"/><path fill-rule="evenodd" clip-rule="evenodd" d="M9.829 7.969H6.125a.568.568 0 00-.57.566v2.219c0 .313.255.566.57.566h3.704c.315 0 .57-.253.57-.566V8.535a.568.568 0 00-.57-.566zM6.125 7.78c-.42 0-.76.338-.76.755v2.219c0 .417.34.755.76.755h3.704c.42 0 .76-.338.76-.755V8.535a.757.757 0 00-.76-.755H6.125z" fill="#0B357F"/><path fill-rule="evenodd" clip-rule="evenodd" d="M6.733 9.169A14.658 14.658 0 015.69 8.013l.11-.088c.24.297.634.75 1.033 1.143.2.196.4.376.582.514.184.139.342.228.458.253.139.03.334-.028.566-.156.227-.127.475-.314.714-.519.478-.41.907-.884 1.046-1.068l.114.085a8.677 8.677 0 01-1.067 1.09 4.682 4.682 0 01-.738.535c-.236.131-.471.213-.665.171-.15-.031-.328-.138-.515-.279a6.32 6.32 0 01-.595-.525zm1.912.67c.885.363 1.54.948 1.76 1.199l-.107.093c-.208-.237-.845-.807-1.707-1.161l.054-.131zm-1.258.13c-.762.315-1.407.998-1.632 1.3l-.115-.085c.234-.313.897-1.017 1.692-1.345l.055.13z" fill="#0B357F"/></svg>