<svg width="14" height="14" fill="none" xmlns="http://www.w3.org/2000/svg"><path d="M7.37 7.263c-.235 3.267-2.003 5.191-3.224 6.136a6.963 6.963 0 001.841.532l.265-.215C7.857 12.415 9.8 10.1 10.247 6.454c-.893.065-1.86.308-2.877.809zm6.358-2.199l-.354-.218c-1.267-.78-4.582-2.35-8.617-.67.51.807 1.233 1.594 2.252 2.282 2.924-1.427 5.504-.855 6.945-.277a7.033 7.033 0 00-.226-1.117z" fill="#0A9F30"/><path d="M7.003 0a6.95 6.95 0 00-3.389.879l.004.031c.081.74.291 1.612.712 2.498 3.884-1.657 7.168-.55 8.866.333A6.997 6.997 0 007.003 0zM2.809 1.406A7.025 7.025 0 001.323 2.92l.038.244C1.679 5.217 2.678 8.1 5.57 10.41c.478-.861.84-1.928.93-3.24-2.528-1.717-3.42-3.997-3.69-5.765z" fill="#0A9F30"/><path d="M.644 4.084A6.976 6.976 0 000 7.007a6.994 6.994 0 003.299 5.937l.084-.06a7.696 7.696 0 001.718-1.73C2.288 8.94 1.114 6.226.644 4.085zM13.882 7.1a7.777 7.777 0 00-2.75-.659c-.416 3.666-2.228 6.087-3.876 7.558A6.996 6.996 0 0014 7.152l-.118-.052z" fill="#0A9F30"/></svg>