<svg width="14" height="14" fill="none" xmlns="http://www.w3.org/2000/svg"><path d="M7 0C3.14 0 0 3.14 0 7s3.14 7 7 7 7-3.14 7-7-3.14-7-7-7zm.444 2.274l1.8-.968a6.154 6.154 0 012.528 1.864l-.428 1.98-1.373.672-2.527-1.84V2.274zm-2.673-.973l1.8.971v1.71l-2.525 1.84-1.38-.673-.429-1.992a6.145 6.145 0 012.534-1.856zM1.95 10.46A6.085 6.085 0 01.906 7.595l1.481-1.61 1.351.661 1.018 2.89-.86 1.031-1.945-.107zm6.61 2.456c-.5.132-1.021.209-1.561.209a6.102 6.102 0 01-1.872-.295l-.55-1.713.878-1.055h3.092l.862 1.02-.85 1.834zm1.531-2.378l-.846-1.002 1.032-2.89 1.345-.658 1.472 1.608a6.067 6.067 0 01-.827 2.512l-2.176.43z" fill="#0A9F30"/></svg>