<svg width="14" height="14" fill="none" xmlns="http://www.w3.org/2000/svg"><path d="M1.4 11.2a1.4 1.4 0 100 2.8h1.4v-2.8H1.4zM13.067 0a.933.933 0 00-.754.382L7.837 6.489l.289-.393 1.857 1.44-.502.792-1.907-1.48-.82 1.118L8.8 9.402l5.056-7.97A.934.934 0 0013.066 0zM6.203 8.72l-1.68 2.29a.467.467 0 01-.375.19h-.415V14h1.38c.48 0 .925-.245 1.182-.65L8.3 10.191 6.203 8.72zM4.2 6.533H.467A.467.467 0 000 7v.933c0 .258.21.467.467.467H4.2c.258 0 .467-.21.467-.467V7a.467.467 0 00-.467-.467z" fill="#0A9F30"/></svg>