<svg width="14" height="14" fill="none" xmlns="http://www.w3.org/2000/svg"><path d="M13.704 6.328c-.687-3.147-1.655-3.923-2.245-4.234-.944-.498-2.039-.208-2.402-.02-.412.212-.69.617-1.11.792-.484.202-1.143.257-1.638.013-.395-.195-.743-.61-1.222-.795-.606-.234-1.616-.562-2.616.155C2.235 2.41.55 3.822.043 8.237c-.312 2.723 1.18 3.599 1.125 3.56.384.274 1.244.74 2.41.01.778-.486 1.41-1.447 1.41-1.447s.281-.535.655-.762c.265-.162.661-.04.661-.04h1.401s.445-.055.757.083c.303.132.474.459.474.459s.924 1.193 1.809 1.802c.377.258 1.891.556 2.673-.4.51-.625.859-2.546.286-5.174zM6.219 6.05c0 .239-.19.432-.424.432H4.734v1.084c0 .24-.19.433-.425.433h-.318a.429.429 0 01-.424-.433V6.482H2.505a.428.428 0 01-.425-.432v-.325c0-.24.19-.434.425-.434h1.061V4.21c0-.239.19-.433.424-.433h.319c.234 0 .424.194.424.433v1.083h1.062c.234 0 .424.193.424.433v.325zm2.99 1.516a.804.804 0 01-.796-.813c0-.448.356-.812.796-.812.44 0 .796.364.796.812 0 .45-.357.813-.796.813zm1.46-1.805a.795.795 0 01-.788-.803c0-.443.352-.802.787-.802.435 0 .787.36.787.802a.795.795 0 01-.787.803z" fill="#0A9F30"/></svg>