<svg width="14" height="14" fill="none" xmlns="http://www.w3.org/2000/svg"><path fill-rule="evenodd" clip-rule="evenodd" d="M2.419 1.707A6.977 6.977 0 015.593.141c-.221.493-.25 1.138-.188 1.829.119 1.332.601 3.06 1.103 4.774-.451.133-.898.263-1.334.387-.349.058-.738-.036-1.142-.28-.492-.295-.969-.794-1.336-1.405-.712-1.185-.943-2.652-.277-3.739zm-1.14 1.26A6.968 6.968 0 00.011 7.414a.549.549 0 00.078.183c.057.085.149.16.296.218.312.124.809.149 1.487.067.542-.065 1.16-.192 1.826-.356a3.32 3.32 0 01-.054-.032c-.617-.371-1.175-.968-1.592-1.662-.5-.833-.828-1.862-.775-2.865zM.168 8.535a6.979 6.979 0 001.545 3.054c1.084.647 2.538.414 3.713-.293.612-.367 1.11-.844 1.406-1.335.243-.404.337-.794.28-1.143a158.98 158.98 0 00-.394-1.355c-.354.105-.709.209-1.06.31v.001c-.105.04-.211.07-.318.09-1.231.348-2.411.647-3.378.763-.676.081-1.307.082-1.794-.092zm7.27-1.283c.106.361.212.723.315 1.082h.002c.04.105.069.21.089.317.349 1.232.647 2.411.763 3.379.082.682.082 1.318-.096 1.806a6.976 6.976 0 002.975-1.463c.72-1.094.494-2.598-.233-3.808-.367-.611-.844-1.11-1.336-1.406-.492-.296-.962-.37-1.364-.22l-.003-.007c-.365.102-.737.21-1.112.32zm5.229 3.857A6.968 6.968 0 0014 7.047h-.015c0-.22-.046-.37-.111-.478a.691.691 0 00-.309-.264c-.309-.147-.801-.195-1.476-.135-.543.049-1.163.163-1.832.318l.048.029c.617.371 1.175.968 1.592 1.662.512.85.842 1.906.77 2.93zm1.195-5.492a6.975 6.975 0 00-1.481-3.094c-1.096-.741-2.615-.518-3.835.215-.612.368-1.11.844-1.406 1.336-.296.492-.371.962-.22 1.364l-.008.003c.101.358.207.723.314 1.091 1.72-.504 3.458-.99 4.796-1.109.696-.062 1.346-.032 1.84.194zM7 14a6.968 6.968 0 01-4.043-1.285c1 .05 2.026-.276 2.857-.776.693-.417 1.29-.974 1.662-1.592l.032-.054c.164.666.29 1.284.356 1.826.081.679.057 1.176-.067 1.488a.611.611 0 01-.218.296.585.585 0 01-.243.089A7.08 7.08 0 017 14zM8.16 2.096c.854-.514 1.913-.844 2.94-.77A6.968 6.968 0 007.028 0v.007c-.22 0-.37.046-.478.111a.69.69 0 00-.264.309c-.147.31-.196.801-.135 1.476.048.543.162 1.163.318 1.833l.028-.048c.372-.618.969-1.175 1.662-1.592z" fill="#0A9F30"/></svg>