<svg width="14" height="14" fill="none" xmlns="http://www.w3.org/2000/svg"><path d="M8.283 11.52H5.717l.437-.932.38-.875h.933l.379.875.437.933z" fill="#FF7058"/><path d="M9.917 11.52H4.083a.585.585 0 00-.583.584V14h6.97v-1.896a.544.544 0 00-.553-.583z" fill="#FFD15C"/><path d="M7.846 10.588a7.473 7.473 0 01-.7.32l-.146.03-.146-.059c-.233-.087-.466-.204-.7-.32l.38-.876h.904l.408.905z" fill="#F1543F"/><path d="M0 1.604V2.8c0 2.917 1.808 5.425 4.346 6.475A6.73 6.73 0 007 9.8c.933 0 1.838-.175 2.654-.525C12.192 8.225 14 5.717 14 2.8V1.604H0zM12.833 2.8c0 1.4-.495 2.683-1.341 3.704-1.08 1.283-2.684 2.13-4.492 2.13a5.777 5.777 0 01-4.492-2.13A5.873 5.873 0 011.167 2.8v-.03h11.637v.03h.03zM11.55 0h-9.1a.355.355 0 00-.35.35c0 .204.146.38.35.38h9.1c.204 0 .35-.176.35-.35 0-.205-.146-.38-.35-.38z" fill="#F8B64C"/><path d="M11.55.73v3.15A7.108 7.108 0 017 10.5a7.147 7.147 0 01-4.55-6.65V.73h9.1z" fill="#FFD15C"/><path d="M7 2.042l.612 1.866h1.955L7.992 5.075l.583 1.867L7 5.775 5.425 6.942l.583-1.867-1.575-1.167h1.954L7 2.042z" fill="#fff"/><path d="M11.52.73H2.45v.437h9.07V.729z" fill="#FFC952"/></svg>