<svg width="182" height="67" viewBox="0 0 182 67" fill="none" xmlns="http://www.w3.org/2000/svg">
<path d="M27.3254 31.9131L28.0515 35.2235H33.3671L35.1562 32.1423L33.7042 40.24H40.7571L44.6984 18.2897H37.2825L32.0965 27.024L30.0481 18.2897H22.7099L18.7686 40.24H25.8215L27.3254 31.9131Z" fill="#404041"/>
<path d="M63.4974 40.24H64.4309H66.6868H72.2617L76.2808 35.2235L79.0034 40.24H86.549L80.7148 29.5959L89.868 18.2897H81.1038L77.2402 23.1024L74.6472 18.2897H67.1017L72.7544 28.7046L66.1682 36.9042L63.4974 40.24Z" fill="#404041"/>
<path d="M49.8585 40.24L52.0625 35.2235H55.5889L56.0297 40.24H60.9305H63.1864L62.6937 36.9042L59.8674 18.2897H53.6961L42.5203 40.24H49.8585ZM53.6442 31.2511L55.0963 27.9661L55.3296 31.2511H53.6442Z" fill="#404041"/>
<path d="M95.6244 42.6336L98.4767 26.8966H91.4238L87.4825 48.796H103.403L104.518 42.6336H95.6244Z" fill="#0A9F30"/>
<path d="M109.756 26.8966L105.815 48.796H112.868L116.809 26.8966H109.756Z" fill="#0A9F30"/>
<path d="M131.33 26.8966L129.67 36.1911L124.614 26.8966H119.221L115.279 48.796H122.332L123.992 39.6034L128.996 48.796H134.441L138.383 26.8966H131.33Z" fill="#0A9F30"/>
<path d="M155.03 33.059L156.119 26.8966H140.794L136.853 48.796H152.229L153.318 42.6336H145.021L145.384 40.571H151.296L152.359 34.7651H146.447L146.732 33.059H155.03Z" fill="#0A9F30"/>
<path d="M18.3019 42.6337L16.0978 48.7961H85.0192L86.1342 42.6337H18.3019Z" fill="#0A9F30"/>
<path d="M91.8387 24.503L92.9537 18.3406H158.997L156.559 24.503H91.8387Z" fill="#404041"/>
<path d="M163.635 19.145C163.94 19.145 164.244 19.2046 164.549 19.3239C164.823 19.4432 165.066 19.5922 165.31 19.801C165.523 20.0097 165.706 20.2482 165.797 20.5463C165.919 20.8147 165.98 21.1128 165.98 21.4408C165.98 21.8582 165.889 22.2458 165.676 22.5738C165.462 22.9315 165.188 23.1999 164.823 23.4086C164.457 23.6173 164.061 23.7067 163.665 23.7067C163.239 23.7067 162.843 23.6173 162.508 23.4086C162.143 23.1999 161.868 22.9315 161.655 22.5738C161.442 22.216 161.351 21.8284 161.351 21.4408C161.351 21.0532 161.442 20.6358 161.655 20.3078C161.868 19.95 162.143 19.6817 162.508 19.473C162.813 19.2345 163.209 19.145 163.635 19.145ZM163.635 19.5922C163.3 19.5922 162.995 19.6817 162.691 19.8308C162.417 19.9798 162.173 20.2184 162.021 20.4867C161.838 20.755 161.777 21.083 161.777 21.411C161.777 21.7389 161.868 22.0371 162.021 22.3352C162.203 22.6036 162.417 22.8421 162.721 22.9912C162.995 23.1402 163.33 23.2297 163.665 23.2297C164 23.2297 164.335 23.1402 164.61 22.9912C164.884 22.8421 165.127 22.6036 165.28 22.3352C165.432 22.0669 165.523 21.7389 165.523 21.411C165.523 21.083 165.432 20.755 165.28 20.4867C165.127 20.2184 164.884 19.9798 164.61 19.8308C164.275 19.6817 163.97 19.5922 163.635 19.5922ZM163.087 22.6334H162.569V20.2184H163.726C163.909 20.2184 164.061 20.2482 164.183 20.3078C164.305 20.3674 164.396 20.4569 164.457 20.5463C164.518 20.6358 164.549 20.7848 164.549 20.9041C164.549 21.083 164.488 21.2321 164.366 21.3513C164.244 21.4706 164.092 21.56 163.879 21.5899C164 21.6197 164.061 21.6793 164.153 21.7687C164.214 21.8582 164.305 21.9775 164.427 22.1563L164.731 22.6334H164.122L163.909 22.2458C163.818 22.0669 163.726 21.9476 163.665 21.8582C163.604 21.7687 163.544 21.7091 163.452 21.6793C163.391 21.6495 163.3 21.6197 163.209 21.6197H163.087V22.6334ZM163.087 20.606V21.2619H163.483C163.665 21.2619 163.818 21.2321 163.909 21.2023C164 21.1426 164.061 21.0532 164.061 20.9339C164.061 20.8445 164.031 20.755 163.94 20.6954C163.848 20.6358 163.726 20.606 163.544 20.606H163.087Z" fill="#404041"/>
</svg>
