<svg width="14" height="14" fill="none" xmlns="http://www.w3.org/2000/svg"><path d="M14 0H0v14h14V0z" fill="#fff"/><path d="M9.582 7c0 .646-1.156 2.26-2.582 2.26S4.417 7.646 4.417 7a2.582 2.582 0 115.165 0z" fill="#D80027"/><path d="M9.582 7a2.582 2.582 0 11-5.165 0" fill="#0052B4"/><path d="M10.424 8.598l-.685.685.457.456.685-.684-.457-.457zM9.283 9.74l-.685.684.457.457.684-.685-.456-.457zm2.511.227l-.685.685.456.456.685-.684-.456-.457zm-1.142 1.142l-.684.685.456.456.685-.685-.457-.456zm.457-1.826l-.685.684.457.457.684-.685-.456-.456zm-1.141 1.141l-.685.685.456.456.685-.684-.456-.457zm-.685-7.533l1.826 1.826.456-.456L9.74 2.435l-.456.456zm-.685.685l.685.685.457-.457-.685-.685-.457.457zM9.74 4.717l.684.685.457-.457-.685-.684-.457.456zm.227-2.511l.685.685.456-.456-.684-.685-.457.456zm1.142 1.142l.685.684.456-.456-.685-.685-.456.457zm-7.076 8.446L2.207 9.968l-.457.456 1.826 1.826.457-.456zm.684-.685l-.685-.685-.456.456.685.685.456-.456zM3.576 9.968l-.685-.685-.456.456.684.685.457-.456zm1.826.456L3.576 8.598l-.456.457 1.826 1.826.456-.457zM2.206 4.032l1.826-1.826-.456-.456L1.75 3.576l.456.456zm.685.685l1.826-1.826-.456-.456L2.435 4.26l.456.456zm.685.685l1.826-1.826-.457-.456L3.12 4.946l.457.456z" fill="#000"/></svg>