<svg width="17" height="16" fill="none" xmlns="http://www.w3.org/2000/svg"><g clip-path="url(#clip0)"><path d="M7.94 0C3.52 0-.077 3.589-.077 8s3.597 8 8.017 8 8.017-3.589 8.017-8S12.36 0 7.94 0zm.51 2.599l2.06-1.106a7.047 7.047 0 012.896 2.13l-.491 2.262-1.573.769L8.45 4.551V2.599zM5.386 1.487l2.061 1.11v1.954l-2.89 2.103-1.581-.77-.491-2.276a7.037 7.037 0 012.9-2.121zM2.158 11.954A6.945 6.945 0 01.961 8.68l1.696-1.839 1.547.755 1.166 3.303-.985 1.178-2.227-.123zm7.569 2.807A6.982 6.982 0 017.94 15a7 7 0 01-2.143-.337l-.63-1.958L6.17 11.5h3.542l.987 1.166-.973 2.095zm1.755-2.718l-.97-1.145 1.182-3.302 1.54-.753 1.687 1.838a6.924 6.924 0 01-.947 2.871l-2.492.491z" fill="#fff"/></g><defs><clipPath id="clip0"><path fill="#fff" transform="translate(.01)" d="M0 0h16.034v16H0z"/></clipPath></defs></svg>