<svg width="16" height="16" fill="none" xmlns="http://www.w3.org/2000/svg"><g opacity=".7" clip-path="url(#clip0)"><path d="M7.677.194l-4.305 7.66a5.482 5.482 0 00-.704 2.707c0 .994.26 1.927.719 2.734l-.015-.027C4.288 14.908 6.012 16 7.993 16c.98 0 1.896-.267 2.682-.732l-.025.013c1.618-.978 2.683-2.727 2.683-4.725a5.47 5.47 0 00-.724-2.729l.014.027L8.322.193a.367.367 0 00-.645-.002l-.001.002z" fill="#0C97E6"/></g><defs><clipPath id="clip0"><path fill="#fff" d="M0 0h16v16H0z"/></clipPath></defs></svg>