<svg width="16" height="16" fill="none" xmlns="http://www.w3.org/2000/svg"><g clip-path="url(#clip0)"><path d="M7.429 1.714H8.57V4H7.43V1.714z" fill="#9CD3A8"/><path d="M6.286 1.143h3.428v1.143H6.286V1.143z" fill="#129A48"/><path d="M11.023 4.739l1.142-1.143.808.808-1.142 1.143-.808-.808zm-7.999-.335l.808-.808 1.143 1.143-.808.808-1.143-1.143z" fill="#9CD3A8"/><path d="M8 14.857a5.714 5.714 0 115.714-5.714A5.72 5.72 0 018 14.857zM8 4.571a4.571 4.571 0 100 9.143 4.571 4.571 0 000-9.143z" fill="#129A48"/><path d="M8 5.714v3.429H4.571A3.429 3.429 0 108 5.714z" fill="#9CD3A8"/></g><defs><clipPath id="clip0"><path fill="#fff" transform="translate(1.143 1.143)" d="M0 0h13.714v13.714H0z"/></clipPath></defs></svg>