<svg width="16" height="16" fill="none" xmlns="http://www.w3.org/2000/svg"><path d="M7.856 2.906a5.058 5.058 0 00-4.928 3.92A3.496 3.496 0 000 10.273a3.494 3.494 0 003.49 3.49h4.366V2.906z" fill="#BDDBFF"/><path d="M12.785 6.827a5.057 5.057 0 00-4.929-3.92v10.855h4.366a3.494 3.494 0 003.49-3.49 3.498 3.498 0 00-2.928-3.445z" fill="#9BC9FF"/><path d="M15.065 5.633a3.171 3.171 0 00-.448-1.078l.662-.663-.933-.933-.663.662a3.17 3.17 0 00-1.078-.448v-.935h-1.32v.936a3.203 3.203 0 00-.962.374 5.053 5.053 0 012.447 3.215l.071.074c.734.132 1.39.494 1.888 1.009.156-.28.269-.58.335-.893H16v-1.32h-.935z" fill="#FFCD00"/></svg>