<svg width="16" height="16" fill="none" xmlns="http://www.w3.org/2000/svg"><path d="M8.28 1L7 3.05l.427 1.773.853.46c1.52 0 2.756 1.337 2.756 2.98l.853 1.63 1.674.107L15 8.262C15 4.273 11.97 1 8.28 1z" fill="#0A9C2F"/><path d="M13 12.93C11.73 14.193 9.972 15 8.041 15 4.171 15 1 11.847 1 8s3.171-7 7.041-7v4.129A2.883 2.883 0 005.153 8a2.883 2.883 0 002.888 2.871c.792 0 1.518-.32 2.038-.845l1.469.263 1.32 1.32L13 12.93z" fill="#4BB174"/><path d="M13 12.92A7.11 7.11 0 018 15v-4.15a2.89 2.89 0 002.055-.85l1.48.264 1.332 1.328.133 1.327z" fill="#9CD3A8"/><path d="M10.847 8c0 .803-.324 1.531-.847 2.059L12.916 13C14.186 11.719 15 9.95 15 8h-4.153z" fill="#9CD3A8"/></svg>