<svg width="14" height="15" fill="none" xmlns="http://www.w3.org/2000/svg"><path d="M7 .047c-3.86 0-7 3.14-7 7s3.14 7 7 7 7-3.14 7-7-3.14-7-7-7zm0 13.125A6.131 6.131 0 01.875 7.047 6.132 6.132 0 017 .922a6.131 6.131 0 016.125 6.125A6.131 6.131 0 017 13.172zm1.143-5.494c.106-.187.17-.401.17-.63 0-.57-.368-1.051-.876-1.232V2.235a.437.437 0 10-.875 0v3.58a1.31 1.31 0 00-.875 1.232c0 .724.59 1.313 1.313 1.313.173 0 .338-.036.49-.098l1.826 1.825a.436.436 0 10.618-.618l-1.79-1.791zM7 7.485a.438.438 0 110-.876.438.438 0 010 .876z" fill="#129A48"/></svg>