<svg width="16" height="16" fill="none" xmlns="http://www.w3.org/2000/svg"><g opacity=".7" clip-path="url(#clip0)"><path d="M9.027 9.653H2.585v.986h6.444a1.344 1.344 0 011.306 1.343v.033-.002.028c0 .65-.519 1.178-1.164 1.195h-.002a1.065 1.065 0 01-1.031-1.064v-.022.001h-.939v.049c0 1.098.875 1.993 1.966 2.024h.003a2.16 2.16 0 002.101-2.16v-.105c0-1.252-.996-2.27-2.24-2.307h-.003.001zm3.795-7.877a3.044 3.044 0 00-2.96 3.041l.001.08v-.004h.938V4.84a2.08 2.08 0 012.018-2.078h.003a2.308 2.308 0 012.24 2.307v.054-.003.062c0 1.382-1.1 2.507-2.473 2.546H0v.987h12.585a3.513 3.513 0 003.414-3.598v.004l.001-.08a3.267 3.267 0 00-3.173-3.265h-.005zM7.371 2.949A1.711 1.711 0 005.708 4.7v-.002h.938v-.017c0-.405.322-.735.724-.746h.001c.462.013.83.39.83.853v.021-.001.024a.97.97 0 01-.942.97H2.585v.987h4.672A1.936 1.936 0 009.14 4.855v-.089c0-.987-.786-1.79-1.765-1.817h-.003z" fill="#989898"/></g><defs><clipPath id="clip0"><path fill="#fff" d="M0 0h16v16H0z"/></clipPath></defs></svg>