<svg width="16" height="16" fill="none" xmlns="http://www.w3.org/2000/svg"><path d="M8.01 6.773l-.026.001a1.232 1.232 0 11.31-2.424l-.008-.001c.712-.557 1.64-1.283 1.747-1.359a.384.384 0 01.537.55c-.048.055-.8.997-1.371 1.721.02.081.034.175.035.272v.008c0 .678-.547 1.228-1.224 1.233zM.002 12.925c0-.34.275-.615.614-.615h5.538v-1.553c-2.169-.784-3.69-2.824-3.69-5.22a5.536 5.536 0 117.42 5.208l-.038.012v1.553h5.536a.615.615 0 010 1.23H.618a.615.615 0 01-.614-.614v-.002H.003zM8 9.232A3.691 3.691 0 108 1.85a3.691 3.691 0 000 7.382zm7.383 5.537H.618a.615.615 0 000 1.23h14.765a.615.615 0 000-1.23z" fill="#FF6464" opacity=".7"/></svg>