<svg width="12" height="12" fill="none" xmlns="http://www.w3.org/2000/svg"><g clip-path="url(#clip0)" fill-rule="evenodd" clip-rule="evenodd" fill="#0A9F30"><path d="M11 4.7H1a.3.3 0 00-.3.3v6a.3.3 0 00.3.3h10a.3.3 0 00.3-.3V5a.3.3 0 00-.3-.3zM1 4a1 1 0 00-1 1v6a1 1 0 001 1h10a1 1 0 001-1V5a1 1 0 00-1-1H1z"/><path d="M5.65 11.5v-7h.7v7h-.7z"/><path d="M12 8.35H0v-.7h12v.7zM9.244.045c.532.125.94.51 1.095 1.13.075.301.068.583-.02.842a1.537 1.537 0 01-.433.641c-.371.34-.9.563-1.41.726-.411.132-.845.235-1.22.324l-.27.064c-.217.053-.398.1-.538.149a.761.761 0 00-.2.087l-.598.598V3.76c0-1.642.958-2.88 1.998-3.434.517-.276 1.09-.401 1.596-.282zM6.396 3.204c.131-.039.276-.076.425-.112l.287-.069c.372-.088.772-.183 1.154-.305.489-.157.896-.343 1.152-.577a.841.841 0 00.242-.348.777.777 0 00.004-.447c-.094-.379-.31-.557-.576-.62-.29-.068-.687-.005-1.107.219-.716.382-1.401 1.181-1.581 2.259z"/><path d="M2.79.045c-.53.126-.934.511-1.089 1.13-.075.3-.068.582.018.84.085.256.24.468.428.642.367.34.891.563 1.396.727.408.132.84.235 1.21.324l.266.064c.216.053.395.1.534.148a1.3 1.3 0 01.157.064.253.253 0 01.044.026l.596.596V3.76c0-1.64-.945-2.878-1.976-3.433C3.861.05 3.293-.074 2.79.045zm2.815 3.158a9.86 9.86 0 00-.42-.11 49.633 49.633 0 00-.282-.069 14.973 14.973 0 01-1.144-.306c-.483-.156-.885-.343-1.137-.575a.837.837 0 01-.239-.348.787.787 0 01-.003-.45c.095-.38.31-.557.571-.619.286-.068.676-.006 1.09.218.708.381 1.386 1.18 1.564 2.259z"/></g><defs><clipPath id="clip0"><path fill="#fff" d="M0 0h12v12H0z"/></clipPath></defs></svg>