<svg width="16" height="16" fill="none" xmlns="http://www.w3.org/2000/svg"><g clip-path="url(#clip0)"><path d="M14.86 11.558l.412-3.069c-.412.16-.956.304-1.62.428-1.55.29-3.605.45-5.79.45-2.184 0-4.24-.16-5.79-.45-.66-.124-1.2-.266-1.61-.424l.42 3.063a.578.578 0 00.159.288c.554.466 1.75 1.026 4.093 1.274v-2.537c0-.24.195-.434.435-.434h4.584c.24 0 .434.194.434.434v2.542c2.354-.241 3.541-.792 4.113-1.279a.556.556 0 00.16-.286z" fill="#129A48"/><path d="M15.612 5.968c-.05.026-.104.052-.162.076-.427.19-1.032.358-1.798.502-1.55.29-3.605.45-5.79.45-2.184 0-4.241-.16-5.79-.45-.765-.144-1.37-.312-1.798-.502a2.728 2.728 0 01-.16-.076l.265 1.92c.033.015.067.033.107.05.386.17.967.332 1.682.466 1.52.285 3.542.441 5.694.441 2.153 0 4.176-.156 5.694-.441.716-.134 1.298-.296 1.682-.466.042-.019.08-.036.115-.054l.259-1.916z" fill="#51BF7D"/><path d="M.487 5.568c.385.17.966.332 1.681.466a.2.2 0 01.06-.024c1.266-.296 3.365-.471 5.614-.471 2.278 0 4.392.179 5.656.481.015.003.03.01.045.017l.014-.001c.716-.134 1.298-.296 1.682-.466.312-.14.432-.256.469-.316a.079.079 0 00.014-.039c0-.038-.087-.179-.483-.354a5.019 5.019 0 00-.62-.219v-.879l1.32-.786c.081-.048.081-.128 0-.177l-1.474-.865a.26.26 0 00-.368.238v2.334a12.99 12.99 0 00-.54-.113c-1.453-.273-3.364-.428-5.413-.442v-.781l1.32-.786c.082-.049.082-.129 0-.177L7.99 1.344a.26.26 0 00-.368.238v2.37c-2.062.01-3.993.167-5.454.442-.176.033-.34.067-.499.102V3.76l1.32-.785c.082-.049.082-.129 0-.177l-1.475-.864a.26.26 0 00-.368.238v2.455a4.957 4.957 0 00-.662.231C.087 5.033 0 5.174 0 5.212c0 .009.003.02.014.038.04.064.16.18.473.318z" fill="#129A48"/><path d="M12.392 6.215c-1.218-.18-2.834-.28-4.549-.28-1.702 0-3.313.1-4.531.278 1.327.172 2.901.264 4.55.264 1.642-.002 3.206-.092 4.53-.262zM5.658 10.67v2.998l-.261.088-.26.086-.334.11a.256.256 0 00-.165.228v.325c0 .095.078.173.173.173h6.101a.174.174 0 00.174-.174v-.324a.256.256 0 00-.165-.228l-.334-.11-.26-.086-.261-.087V10.67H9.43v2.24H6.294v-2.24h-.636z" fill="#51BF7D"/></g><defs><clipPath id="clip0"><path fill="#fff" d="M0 0h16v16H0z"/></clipPath></defs></svg>