<svg width="16" height="16" fill="none" xmlns="http://www.w3.org/2000/svg"><path d="M14.59 3.791H8.988l1.623-1.626a.41.41 0 00-.581-.58L8 3.62 5.97 1.585a.41.41 0 10-.58.58L7.011 3.79H1.41A.41.41 0 001 4.2v8.5c0 .226.184.41.41.41h.684v.313c0 .227.183.41.41.41h10.992a.41.41 0 00.41-.41v-.313h.684a.41.41 0 00.41-.41V4.2a.41.41 0 00-.41-.41zm-3.692 7.538a.41.41 0 01-.41.41h-7.71a.41.41 0 01-.41-.41V5.572a.41.41 0 01.41-.41h7.71a.41.41 0 01.41.41v5.757zm1.641-2.47a.547.547 0 110-1.093.547.547 0 010 1.093zm0-2.187a.547.547 0 110-1.094.547.547 0 010 1.094z" fill="#338AF3"/></svg>