<svg width="12" height="12" fill="none" xmlns="http://www.w3.org/2000/svg"><path d="M10.922 2.635H9.328V1.031C9.328.462 8.844 0 8.25 0H1.078C.484 0 0 .462 0 1.031V8.24c0 .299.117.581.33.795a1.12 1.12 0 001.585.006l.804-.775c.13.429.54.746 1.031.746h3.197c.25 0 .486.098.667.279l2.464 2.38a1.12 1.12 0 001.592-.001c.213-.213.33-.495.33-.794V3.667c0-.568-.484-1.031-1.078-1.031zM1.39 8.505a.38.38 0 01-.53-.002.37.37 0 01-.11-.264V1.031C.75.876.897.75 1.078.75H8.25c.18 0 .328.126.328.281v4.313c0 .155-.147.281-.328.281H5.053c-.45 0-.874.176-1.188.49L1.39 8.505zm9.86 2.37a.378.378 0 01-.645.26L8.14 8.755a1.672 1.672 0 00-1.193-.494H3.75c-.18 0-.328-.127-.328-.281v-.395l.968-.936a.933.933 0 01.663-.274H8.25c.594 0 1.078-.462 1.078-1.031V3.385h1.594c.18 0 .328.127.328.282v7.208zM4.687 4.5a.563.563 0 100-1.125.563.563 0 000 1.125zm-2.25-1.125a.562.562 0 100 1.125.562.562 0 000-1.125zm4.5 1.125a.563.563 0 100-1.125.563.563 0 000 1.125z" fill="#404041"/></svg>