<svg width="17" height="16" fill="none" xmlns="http://www.w3.org/2000/svg"><g clip-path="url(#clip0)" fill="#51BF7D"><path d="M4.387 8.009H1.31a.43.43 0 00-.43.43v7.131c0 .237.193.43.43.43h3.076a.43.43 0 00.43-.43V8.438a.43.43 0 00-.43-.43zM9.548 0H6.473a.43.43 0 00-.43.43v15.14c0 .238.192.43.43.43h3.075a.43.43 0 00.43-.43V.43a.43.43 0 00-.43-.43zm5.162 4.951h-3.076a.43.43 0 00-.43.43v10.19a.43.43 0 00.43.429h3.076a.43.43 0 00.43-.43V5.38a.43.43 0 00-.43-.429z"/></g><defs><clipPath id="clip0"><path fill="#fff" d="M0 0h16.021v16H0z"/></clipPath></defs></svg>