<svg width="17" height="16" viewBox="0 0 17 16" fill="none" xmlns="http://www.w3.org/2000/svg">
<g clip-path="url(#clip0)">
<path d="M4.38651 8.00891H1.31121C1.07364 8.00891 0.881073 8.20123 0.881073 8.43848V15.5702C0.881073 15.8075 1.07364 15.9998 1.31121 15.9998H4.38651C4.62407 15.9998 4.81664 15.8075 4.81664 15.5702V8.43848C4.81664 8.20127 4.62407 8.00891 4.38651 8.00891Z" fill="#51BF7D"/>
<path d="M9.54813 0H6.47283C6.23527 0 6.04269 0.192319 6.04269 0.429571V15.5704C6.04269 15.8076 6.23527 16 6.47283 16H9.54813C9.78569 16 9.97826 15.8076 9.97826 15.5704V0.429571C9.97826 0.192319 9.78573 0 9.54813 0Z" fill="#51BF7D"/>
<path d="M14.7098 4.95105H11.6345C11.3969 4.95105 11.2043 5.14337 11.2043 5.38062V15.5704C11.2043 15.8075 11.3969 15.9999 11.6345 15.9999H14.7098C14.9473 15.9999 15.1399 15.8075 15.1399 15.5704V5.38062C15.1399 5.14337 14.9474 4.95105 14.7098 4.95105Z" fill="#51BF7D"/>
</g>
<defs>
<clipPath id="clip0">
<rect width="16.021" height="16" fill="white"/>
</clipPath>
</defs>
</svg>
